<svg width="172" height="268" viewBox="0 0 172 268" fill="none" xmlns="http://www.w3.org/2000/svg">
<path d="M24.9611 257.121V250.092C47.4563 252.435 59.7193 249.896 63.0389 248.334C64.6792 249.271 68.0183 253.216 69.4829 255.071C71.8261 257.414 72.2166 260.929 72.119 262.394C72.119 267.936 62.887 266.787 57.3446 266.787H41.3639C41.1058 266.752 40.853 266.716 40.6056 266.68C34.0309 265.729 25.8203 263.709 24.9611 257.121Z" fill="#3D3332" stroke="black" stroke-width="2"/>
<path d="M24.9611 250.384V235.739H63.3318V248.334C57.708 252.083 35.4081 251.263 24.9611 250.384Z" fill="#EFB7F4" stroke="black" stroke-width="2"/>
<path d="M81.1991 252.505V244.247C103.548 247 115.732 244.018 119.03 242.183C120.659 243.284 123.977 247.917 125.432 250.096C127.76 252.849 128.148 256.977 128.051 258.697C128.051 264.552 118.697 263.858 112.842 263.858H102.167C99.0577 263.858 93.7403 263.262 90.7377 262.453C86.7997 261.393 84.3053 260.876 82.5389 257.2C81.7439 255.546 81.334 253.727 81.1991 252.505Z" fill="#3D3332" stroke="black" stroke-width="2"/>
<path d="M81.1991 245.492V229.881H119.277V243.307C113.696 247.303 91.5663 246.429 81.1991 245.492Z" fill="#EFB7F4" stroke="black" stroke-width="2"/>
<path d="M139.603 187.995C139.837 181.2 137.162 168.175 135.795 162.513L112.07 172.471C115.35 185.125 115.78 191.022 115.585 192.389L112.07 197.076C111.419 197.726 111.13 198.302 111.083 198.802C110.853 201.246 114.777 201.176 117.231 201.176C117.939 201.176 118.514 201.75 118.514 202.459V204.984C118.514 208.967 120.076 209.768 120.857 209.67C121.9 209.67 122.843 209.145 123.6 208.484C124.909 207.342 125.173 204.371 126.904 204.508C127.926 204.589 128.152 205.612 128.533 206.564C129.375 208.668 131.453 209.51 132.573 209.67C135.151 209.436 135.795 204.886 135.795 202.641H138.916C140.152 202.641 142.059 203.018 143.225 202.606C147.543 201.08 141.011 195.49 140.024 191.018C139.763 189.836 139.637 188.75 139.603 187.995Z" fill="#F6B3F6" stroke="black" stroke-width="2"/>
<path d="M18.5172 227.831C16.6426 236.501 27.6949 237.887 33.4554 237.497C51.0298 237.497 59.1335 236.52 60.9886 236.032C67.5497 234.86 68.9947 231.248 68.897 229.588L70.6545 222.851H77.0984V227.831C76.6298 230.643 79.6369 232.517 81.1991 233.103C100.648 235.915 114.297 231.931 118.691 229.588C122.206 229.354 123.28 224.999 123.378 222.851V210.549C127.595 203.988 126.502 193.17 125.428 188.581C75.751 202.172 33.4554 193.072 18.5172 186.824V227.831Z" fill="#6F58F0" stroke="black" stroke-width="2"/>
<path d="M33.4554 236.911V192.682" stroke="black" stroke-width="2"/>
<path d="M118.398 229.881V207.034L119.538 203.709C121.111 199.123 121.913 194.308 121.913 189.46V189.46" stroke="black" stroke-width="2"/>
<path d="M75.3409 222.558C77.4889 220.801 81.5506 215.236 80.6133 207.034" stroke="black" stroke-width="2"/>
<path d="M88.8147 221.094C91.1404 219.502 95.5381 214.462 94.5232 207.034" stroke="black" stroke-width="2"/>
<path d="M75.9268 222.558C79.9299 222.851 89.049 222.793 93.5012 220.215" stroke="black" stroke-width="2"/>
<path d="M6.8009 191.803C6.56657 185.008 9.24178 171.983 10.6087 166.32L34.3341 176.279C31.0535 188.933 30.624 194.83 30.8192 196.197L34.3341 200.883C34.9849 201.534 35.2742 202.11 35.3212 202.61C35.5508 205.053 31.6267 204.984 29.1725 204.984C28.4643 204.984 27.8902 205.558 27.8902 206.266V208.792C27.8902 212.775 26.328 213.576 25.5469 213.478C24.5039 213.478 23.5611 212.953 22.8037 212.292C21.4952 211.15 21.231 208.178 19.4996 208.316C18.4781 208.397 18.2518 209.42 17.871 210.372C17.0287 212.476 14.9509 213.318 13.8307 213.478C11.2531 213.244 10.6087 208.694 10.6087 206.449H7.48821C6.25143 206.449 4.345 206.826 3.17884 206.414C-1.13967 204.888 5.39243 199.298 6.37967 194.826C6.64059 193.644 6.76658 192.558 6.8009 191.803Z" fill="#F6B3F6" stroke="black" stroke-width="2"/>
<path d="M135.387 162.806C135.855 148.746 128.357 135.76 123.963 130L103.753 140.838L86.4714 144.938H68.6041L52.7872 142.302L36.6773 135.858L24.9611 127.95C14.6508 134.276 10.1205 153.823 9.14417 162.806C9.14417 169.601 25.9375 174.619 34.3341 176.279L31.6979 192.096C75.2824 200.297 116.055 191.803 130.993 186.531C130.993 177.158 127.869 169.152 126.307 166.32L135.387 162.806Z" fill="#FCFEFD" stroke="black" stroke-width="2"/>
<path fill-rule="evenodd" clip-rule="evenodd" d="M89.628 168.195C89.8039 169.469 89.9717 170.741 90.1289 172.002C90.7313 176.832 91.1762 181.474 91.3256 185.38C91.4767 189.327 91.3188 192.393 90.7867 194.149L92.7007 194.729C93.3402 192.619 93.4752 189.248 93.3242 185.304C93.1716 181.318 92.7195 176.613 92.1136 171.754C91.9623 170.542 91.8014 169.319 91.633 168.094C93.294 168.064 95.056 168.169 96.8462 168.477L97.186 166.507C95.1767 166.16 93.2037 166.052 91.3525 166.099C90.2141 158.175 88.812 150.371 87.7449 145.035L85.7837 145.427C86.8377 150.697 88.2204 158.391 89.348 166.211C85.6342 166.53 82.6136 167.406 81.1074 168.033L81.8767 169.88C83.2341 169.314 86.0971 168.486 89.628 168.195Z" fill="black"/>
<circle cx="92.6224" cy="159.584" r="1.17162" fill="black"/>
<circle cx="94.3799" cy="172.471" r="1.17162" fill="black"/>
<circle cx="96.1372" cy="184.773" r="1.17162" fill="black"/>
<path d="M41.3639 161.048C41.3639 161.975 41.3153 163.082 41.1998 164.27M34.627 176.279C38.9934 175.9 40.7067 169.342 41.1998 164.27M45.1716 161.634C44.7693 162.317 43.4117 163.801 41.1998 164.27" stroke="black" stroke-width="2"/>
<path d="M122.792 148.16C123.963 150.796 126.248 158.06 126.014 166.027" stroke="black" stroke-width="2"/>
<path d="M48.9794 190.046C63.9176 192.584 98.3634 195.67 116.641 187.703" stroke="black" stroke-width="2"/>
<path d="M86.7642 145.231C82.5464 151.558 78.3676 155.288 76.8054 156.362C66.4951 157.299 57.0831 147.965 53.6658 143.181C64.9134 145.758 80.4179 145.622 86.7642 145.231ZM86.7642 145.231L93.2082 152.554C94.1845 153.921 97.0159 155.834 100.531 152.554C105.51 149.332 115.938 141.013 117.812 133.515C113.907 136.346 102.23 142.654 86.7642 145.231Z" stroke="black" stroke-width="2"/>
<path d="M78.4803 17.6818C78.4803 14.6937 77.7238 11.196 75.4439 8.96968C73.0546 6.63644 73.0148 5.14356 73.0148 2" stroke="#100C0B" stroke-width="3" stroke-linecap="round"/>
<mask id="path-23-inside-1_1_127" fill="white">
<path fill-rule="evenodd" clip-rule="evenodd" d="M142.082 109.53C130.956 132.314 106.119 148.177 77.2658 148.177C38.0256 148.177 6.21509 118.839 6.21509 82.6491C6.21509 46.4593 38.0256 17.1217 77.2658 17.1217C113.706 17.1217 143.739 42.4222 147.839 75.0155C152.171 78.5177 154.996 84.2689 154.996 90.77C154.996 99.8393 149.498 107.449 142.082 109.53Z"/>
</mask>
<path fill-rule="evenodd" clip-rule="evenodd" d="M142.082 109.53C130.956 132.314 106.119 148.177 77.2658 148.177C38.0256 148.177 6.21509 118.839 6.21509 82.6491C6.21509 46.4593 38.0256 17.1217 77.2658 17.1217C113.706 17.1217 143.739 42.4222 147.839 75.0155C152.171 78.5177 154.996 84.2689 154.996 90.77C154.996 99.8393 149.498 107.449 142.082 109.53Z" fill="#F6B3F6"/>
<path d="M142.082 109.53L141.542 107.604L140.679 107.846L140.285 108.652L142.082 109.53ZM147.839 75.0155L145.855 75.2651L145.956 76.0643L146.582 76.5707L147.839 75.0155ZM140.285 108.652C129.51 130.717 105.393 146.177 77.2658 146.177V150.177C106.845 150.177 132.401 133.912 143.879 110.407L140.285 108.652ZM77.2658 146.177C38.9747 146.177 8.21509 117.585 8.21509 82.6491H4.21509C4.21509 120.093 37.0765 150.177 77.2658 150.177V146.177ZM8.21509 82.6491C8.21509 47.7132 38.9747 19.1217 77.2658 19.1217V15.1217C37.0765 15.1217 4.21509 45.2055 4.21509 82.6491H8.21509ZM77.2658 19.1217C112.814 19.1217 141.895 43.7824 145.855 75.2651L149.824 74.7659C145.584 41.062 114.599 15.1217 77.2658 15.1217V19.1217ZM146.582 76.5707C150.419 79.6733 152.996 84.8404 152.996 90.77H156.996C156.996 83.6974 153.923 77.3621 149.097 73.4603L146.582 76.5707ZM152.996 90.77C152.996 99.0769 147.972 105.8 141.542 107.604L142.623 111.455C151.024 109.098 156.996 100.602 156.996 90.77H152.996Z" fill="black" mask="url(#path-23-inside-1_1_127)"/>
<path d="M113.095 107.244C113.271 107.841 114.188 108.171 114.701 108.463C115.945 109.169 117.236 109.844 118.656 110.2C121.444 110.897 124.287 110.801 127.145 110.801C132.892 110.801 138.66 110.423 143.695 107.689C145.756 106.569 147.539 105.217 149.167 103.605C151.098 101.693 152.322 98.9584 153.389 96.5747C154.327 94.4796 154.677 92.1546 154.88 89.9145C154.943 89.216 155.192 87.1308 155.192 87.8317" stroke="#100C0B" stroke-width="2" stroke-linecap="round"/>
<path d="M171 61.3667C171 78.68 155.756 92.8504 136.778 92.8504C117.8 92.8504 102.557 78.68 102.557 61.3667C102.557 44.0534 117.8 29.883 136.778 29.883C155.756 29.883 171 44.0534 171 61.3667Z" fill="#FCFEFD" stroke="black" stroke-width="2"/>
<path d="M172 58.5664C172 69.3924 162.484 78.1686 150.746 78.1686C139.007 78.1686 129.491 69.3924 129.491 58.5664C129.491 47.7404 139.007 38.9642 150.746 38.9642C162.484 38.9642 172 47.7404 172 58.5664Z" fill="#100C0B"/>
<path fill-rule="evenodd" clip-rule="evenodd" d="M150.746 76.997C161.928 76.997 170.828 68.6579 170.828 58.5664C170.828 48.4749 161.928 40.1358 150.746 40.1358C139.563 40.1358 130.663 48.4749 130.663 58.5664C130.663 68.6579 139.563 76.997 150.746 76.997ZM150.746 78.1686C162.484 78.1686 172 69.3924 172 58.5664C172 47.7404 162.484 38.9642 150.746 38.9642C139.007 38.9642 129.491 47.7404 129.491 58.5664C129.491 69.3924 139.007 78.1686 150.746 78.1686Z" fill="black"/>
<path fill-rule="evenodd" clip-rule="evenodd" d="M151.581 51.2833C151.622 50.7997 152.047 50.4405 152.53 50.481C154.268 50.6267 156.182 51.8385 157.7 53.1937C159.232 54.5608 160.583 56.2732 161.093 57.684C161.258 58.1404 161.021 58.6441 160.565 58.8091C160.108 58.974 159.605 58.7378 159.44 58.2814C159.071 57.2623 157.961 55.7827 156.53 54.5048C155.085 53.2149 153.533 52.3287 152.384 52.2323C151.9 52.1918 151.541 51.7669 151.581 51.2833Z" fill="#FCFEFD"/>
<path fill-rule="evenodd" clip-rule="evenodd" d="M153.511 56.1135C153.906 55.8328 154.455 55.9262 154.736 56.3221C157.005 59.5228 157.396 62.414 157.396 66.0491C157.396 66.5344 157.003 66.9278 156.518 66.9278C156.032 66.9278 155.639 66.5344 155.639 66.0491C155.639 62.5843 155.271 60.1157 153.302 57.3385C153.021 56.9426 153.115 56.3942 153.511 56.1135Z" fill="#FCFEFD"/>
<path fill-rule="evenodd" clip-rule="evenodd" d="M161.069 60.488C161.554 60.488 161.947 60.8814 161.947 61.3667C161.947 61.4069 161.948 61.4492 161.948 61.4935C161.951 61.8872 161.955 62.4333 161.757 62.9361C161.505 63.5754 160.996 64.0381 160.231 64.4009C159.793 64.6089 159.269 64.4221 159.061 63.9836C158.853 63.5452 159.039 63.0211 159.478 62.8131C159.987 62.5716 160.085 62.386 160.121 62.2922C160.19 62.1184 160.19 61.9135 160.19 61.368V61.3667C160.19 60.8814 160.583 60.488 161.069 60.488Z" fill="#FCFEFD"/>
<path fill-rule="evenodd" clip-rule="evenodd" d="M148.286 44.0185C148.679 44.3028 148.768 44.8522 148.483 45.2455C147.328 46.8442 145.556 47.639 143.759 48.0441C141.961 48.4492 140.021 48.4903 138.4 48.4903C137.915 48.4903 137.522 48.0969 137.522 47.6116C137.522 47.1262 137.915 46.7328 138.4 46.7328C140.017 46.7328 141.783 46.6878 143.372 46.3297C144.962 45.9715 146.257 45.3259 147.059 44.2159C147.344 43.8226 147.893 43.7342 148.286 44.0185Z" fill="#FCFEFD"/>
<path fill-rule="evenodd" clip-rule="evenodd" d="M137.991 52.5389C138.133 53.0028 137.873 53.4944 137.409 53.637C137.411 53.6364 137.41 53.637 137.406 53.6395C137.383 53.6544 137.257 53.7369 137.057 54.0241C136.849 54.3241 136.638 54.7333 136.449 55.192C136.262 55.646 136.106 56.1203 135.999 56.5343C135.886 56.9673 135.843 57.2713 135.843 57.4065C135.843 57.8918 135.449 58.2852 134.964 58.2852C134.479 58.2852 134.085 57.8918 134.085 57.4065C134.085 57.0424 134.175 56.5636 134.298 56.0926C134.425 55.6026 134.606 55.0516 134.825 54.5212C135.042 53.9954 135.308 53.4612 135.615 53.0206C135.896 52.6158 136.317 52.1342 136.893 51.9572C137.356 51.8146 137.848 52.075 137.991 52.5389Z" fill="#FCFEFD"/>
<path fill-rule="evenodd" clip-rule="evenodd" d="M134.938 62.1535C135.18 62.1389 135.388 62.3234 135.403 62.5656C135.488 63.9816 136.29 64.9456 137.449 66.0142C137.627 66.1787 137.638 66.4567 137.474 66.635C137.309 66.8134 137.031 66.8247 136.853 66.6601C135.667 65.5667 134.633 64.3981 134.526 62.6185C134.511 62.3763 134.696 62.1681 134.938 62.1535Z" fill="#FCFEFD"/>
<path fill-rule="evenodd" clip-rule="evenodd" d="M145.163 73.415C145.232 73.1823 145.476 73.0493 145.709 73.118C147.018 73.5043 148.274 73.6762 149.646 73.6762C149.888 73.6762 150.085 73.8729 150.085 74.1155C150.085 74.3582 149.888 74.5549 149.646 74.5549C148.194 74.5549 146.854 74.3721 145.46 73.9607C145.228 73.8921 145.095 73.6477 145.163 73.415Z" fill="#FCFEFD"/>
<path fill-rule="evenodd" clip-rule="evenodd" d="M143.711 63.7299C144.196 63.7299 144.589 64.1233 144.589 64.6087C144.589 64.7972 144.606 64.895 144.627 64.9697C144.65 65.0517 144.692 65.1516 144.795 65.3422C145.027 65.7688 144.868 66.3022 144.442 66.5335C144.015 66.7648 143.482 66.6064 143.25 66.1798C143.127 65.9513 143.012 65.7177 142.936 65.4497C142.858 65.1743 142.832 64.9055 142.832 64.6087C142.832 64.1233 143.225 63.7299 143.711 63.7299Z" fill="#FCFEFD"/>
<path fill-rule="evenodd" clip-rule="evenodd" d="M143.537 61.0717C143.741 60.631 144.263 60.4385 144.703 60.6417C144.826 60.6984 144.99 60.7604 145.209 60.841C145.223 60.8463 145.237 60.8517 145.252 60.8571C145.448 60.9294 145.676 61.0136 145.896 61.1066C146.132 61.206 146.391 61.3289 146.625 61.4825C146.85 61.6306 147.12 61.8511 147.294 62.1732C147.526 62.5999 147.367 63.1332 146.941 63.3645C146.52 63.5927 145.995 63.4418 145.759 63.0283C145.752 63.0209 145.724 62.9938 145.659 62.951C145.554 62.8821 145.406 62.8072 145.212 62.7255C145.031 62.6489 144.839 62.5779 144.635 62.5025C144.623 62.4982 144.611 62.4939 144.6 62.4896C144.395 62.4141 144.164 62.3284 143.967 62.2377C143.527 62.0344 143.334 61.5124 143.537 61.0717Z" fill="#FCFEFD"/>
<path fill-rule="evenodd" clip-rule="evenodd" d="M162.303 46.046C162.532 45.9635 162.783 46.0817 162.866 46.3099C162.958 46.5642 163.238 46.8822 163.646 47.2682C163.748 47.3647 163.859 47.4658 163.972 47.569C164.267 47.8386 164.579 48.1234 164.8 48.3826C166.456 50.3222 168.092 52.3431 168.202 55.0842C168.212 55.3266 168.023 55.5311 167.781 55.5408C167.538 55.5505 167.334 55.3619 167.324 55.1194C167.228 52.7207 165.807 50.9154 164.132 48.9531C163.948 48.7377 163.702 48.5134 163.426 48.2615C163.303 48.1493 163.175 48.0317 163.043 47.9069C162.654 47.5395 162.213 47.0882 162.04 46.6086C161.957 46.3803 162.075 46.1285 162.303 46.046Z" fill="#FCFEFD"/>
<path fill-rule="evenodd" clip-rule="evenodd" d="M165.126 69.103C165.349 69.1996 165.451 69.4583 165.355 69.681C164.618 71.3805 163.029 72.5215 161.404 73.3542C161.188 73.4648 160.923 73.3795 160.812 73.1635C160.702 72.9476 160.787 72.6828 161.003 72.5721C162.576 71.7662 163.936 70.7443 164.549 69.3313C164.645 69.1087 164.904 69.0065 165.126 69.103Z" fill="#FCFEFD"/>
<path d="M109.058 68.3675C109.058 81.8144 97.213 92.8504 82.4275 92.8504C67.642 92.8504 55.7967 81.8144 55.7967 68.3675C55.7967 54.9206 67.642 43.8846 82.4275 43.8846C97.213 43.8846 109.058 54.9206 109.058 68.3675Z" fill="#FCFEFD" stroke="black" stroke-width="2"/>
<path d="M110.058 66.1707C110.058 74.6635 102.593 81.5483 93.3845 81.5483C84.1759 81.5483 76.7108 74.6635 76.7108 66.1707C76.7108 57.6779 84.1759 50.7931 93.3845 50.7931C102.593 50.7931 110.058 57.6779 110.058 66.1707Z" fill="#100C0B"/>
<path fill-rule="evenodd" clip-rule="evenodd" d="M93.3845 80.3767C102.037 80.3767 108.887 73.929 108.887 66.1707C108.887 58.4124 102.037 51.9647 93.3845 51.9647C84.7319 51.9647 77.8824 58.4124 77.8824 66.1707C77.8824 73.929 84.7319 80.3767 93.3845 80.3767ZM93.3845 81.5483C102.593 81.5483 110.058 74.6635 110.058 66.1707C110.058 57.6779 102.593 50.7931 93.3845 50.7931C84.1759 50.7931 76.7108 57.6779 76.7108 66.1707C76.7108 74.6635 84.1759 81.5483 93.3845 81.5483Z" fill="black"/>
<path fill-rule="evenodd" clip-rule="evenodd" d="M93.8515 60.4414C93.8921 59.9578 94.317 59.5986 94.8006 59.6392C96.2273 59.7588 97.7674 60.7445 98.9663 61.8146C100.179 62.8967 101.264 64.2651 101.68 65.4141C101.845 65.8705 101.608 66.3742 101.152 66.5392C100.696 66.7041 100.192 66.4679 100.027 66.0115C99.7533 65.2542 98.9084 64.1186 97.796 63.1257C96.6703 62.1209 95.4918 61.4607 94.6537 61.3904C94.1701 61.3499 93.811 60.925 93.8515 60.4414Z" fill="#FCFEFD"/>
<path fill-rule="evenodd" clip-rule="evenodd" d="M95.4442 64.0919C95.8401 63.8113 96.3886 63.9047 96.6693 64.3006C98.4818 66.8571 98.7916 69.1707 98.7916 72.0407C98.7916 72.526 98.3981 72.9195 97.9128 72.9195C97.4275 72.9195 97.0341 72.526 97.0341 72.0407C97.0341 69.341 96.7479 67.45 95.2356 65.317C94.9549 64.9211 95.0483 64.3726 95.4442 64.0919Z" fill="#FCFEFD"/>
<path fill-rule="evenodd" clip-rule="evenodd" d="M101.483 67.4888C101.968 67.4888 102.362 67.8822 102.362 68.3675C102.362 68.3977 102.362 68.4302 102.362 68.4648C102.365 68.7696 102.369 69.2368 102.199 69.668C101.978 70.2283 101.534 70.6212 100.907 70.9188C100.469 71.1269 99.9446 70.9401 99.7366 70.5016C99.5286 70.0632 99.7153 69.5391 100.154 69.331C100.513 69.1605 100.555 69.0466 100.563 69.0259C100.563 69.0252 100.564 69.0246 100.564 69.0241C100.576 68.9938 100.59 68.939 100.598 68.827C100.605 68.7268 100.605 68.6231 100.604 68.4755C100.604 68.4419 100.604 68.4061 100.604 68.3675C100.604 67.8822 100.998 67.4888 101.483 67.4888Z" fill="#FCFEFD"/>
<path fill-rule="evenodd" clip-rule="evenodd" d="M91.5662 54.6047C91.9595 54.889 92.0478 55.4383 91.7635 55.8316C90.8189 57.1384 89.3778 57.778 87.9452 58.1009C86.5126 58.4237 84.9722 58.4555 83.6999 58.4555C83.2146 58.4555 82.8212 58.0621 82.8212 57.5768C82.8212 57.0915 83.2146 56.6981 83.6999 56.6981C84.9673 56.6981 86.3346 56.6623 87.5588 56.3864C88.783 56.1105 89.7479 55.6202 90.3392 54.802C90.6236 54.4087 91.1729 54.3204 91.5662 54.6047Z" fill="#FCFEFD"/>
<path fill-rule="evenodd" clip-rule="evenodd" d="M83.0076 62.4751C83.4529 62.3211 83.6993 61.8405 83.5598 61.3866C83.4172 60.9227 82.9255 60.6623 82.4616 60.8049C81.9461 60.9633 81.5854 61.387 81.3593 61.7119C81.1083 62.0727 80.8933 62.5054 80.72 62.9251C80.5449 63.3494 80.4003 63.7898 80.2983 64.1824C80.2013 64.5561 80.1258 64.9504 80.1258 65.2608C80.1258 65.7461 80.5192 66.1395 81.0045 66.1395C81.4898 66.1395 81.8832 65.7461 81.8832 65.2608C81.8832 65.1794 81.9122 64.9597 81.9993 64.6242C82.0815 64.3076 82.2008 63.9437 82.3445 63.5958C82.49 63.2432 82.6489 62.9356 82.802 62.7155C82.9335 62.5264 83.0081 62.4781 83.0076 62.4751Z" fill="#FCFEFD"/>
<path fill-rule="evenodd" clip-rule="evenodd" d="M80.9781 68.8902C81.2203 68.8756 81.4285 69.0601 81.4431 69.3023C81.5076 70.3739 82.1117 71.1082 83.0177 71.9438C83.1961 72.1083 83.2073 72.3862 83.0428 72.5646C82.8783 72.743 82.6003 72.7542 82.422 72.5897C81.489 71.7292 80.6524 70.7905 80.5659 69.3552C80.5513 69.113 80.7359 68.9048 80.9781 68.8902Z" fill="#FCFEFD"/>
<path fill-rule="evenodd" clip-rule="evenodd" d="M88.9148 77.7923C88.9834 77.5596 89.2278 77.4266 89.4605 77.4953C90.4782 77.7957 91.4542 77.9293 92.5218 77.9293C92.7644 77.9293 92.9611 78.1261 92.9611 78.3687C92.9611 78.6114 92.7644 78.8081 92.5218 78.8081C91.3746 78.8081 90.3145 78.6635 89.2118 78.3381C88.9791 78.2694 88.8461 78.0251 88.9148 77.7923Z" fill="#FCFEFD"/>
<path fill-rule="evenodd" clip-rule="evenodd" d="M87.8658 70.032C88.3511 70.032 88.7445 70.4254 88.7445 70.9108C88.7445 71.047 88.7563 71.1053 88.7668 71.1423C88.7793 71.1865 88.8045 71.2505 88.8833 71.3959C89.1146 71.8226 88.9563 72.3559 88.5296 72.5872C88.103 72.8185 87.5696 72.6602 87.3383 72.2336C87.239 72.0502 87.1415 71.8526 87.0761 71.6222C87.0087 71.3846 86.9871 71.1553 86.9871 70.9108C86.9871 70.4254 87.3805 70.032 87.8658 70.032Z" fill="#FCFEFD"/>
<path fill-rule="evenodd" clip-rule="evenodd" d="M87.5579 68.0568C87.7611 67.6161 88.2831 67.4236 88.7238 67.6268C88.8123 67.6676 88.9338 67.7137 89.1065 67.7775C89.1179 67.7817 89.1295 67.7859 89.1412 67.7903C89.2943 67.8467 89.4771 67.9142 89.6541 67.989C89.8432 68.0689 90.0586 68.1705 90.2558 68.3001C90.4445 68.4242 90.6855 68.6181 90.8437 68.9099C91.075 69.3366 90.9166 69.87 90.49 70.1012C90.079 70.3241 89.569 70.1853 89.3254 69.7934C89.3177 69.7875 89.3063 69.7791 89.2904 69.7686C89.2219 69.7236 89.1174 69.6701 88.9702 69.6079C88.832 69.5495 88.6851 69.4953 88.5237 69.4357C88.515 69.4325 88.5063 69.4292 88.4975 69.426C88.3387 69.3674 88.1502 69.2976 87.9879 69.2227C87.5472 69.0195 87.3547 68.4975 87.5579 68.0568Z" fill="#FCFEFD"/>
<path fill-rule="evenodd" clip-rule="evenodd" d="M102.419 56.2596C102.648 56.1771 102.899 56.2953 102.982 56.5235C103.045 56.6987 103.247 56.9338 103.57 57.2386C103.647 57.3116 103.732 57.3891 103.819 57.469C104.052 57.6818 104.304 57.912 104.482 58.1202C105.779 59.6393 107.086 61.2479 107.174 63.4352C107.183 63.6776 106.995 63.882 106.752 63.8918C106.51 63.9015 106.305 63.7129 106.296 63.4704C106.221 61.6256 105.13 60.2326 103.814 58.6907C103.673 58.5264 103.488 58.3567 103.274 58.1615C103.177 58.0727 103.074 57.9786 102.966 57.8773C102.663 57.5911 102.3 57.2227 102.155 56.8222C102.073 56.594 102.191 56.3421 102.419 56.2596Z" fill="#FCFEFD"/>
<path fill-rule="evenodd" clip-rule="evenodd" d="M104.704 74.3497C104.927 74.4462 105.029 74.7049 104.932 74.9276C104.341 76.2917 103.069 77.1997 101.789 77.8557C101.573 77.9664 101.308 77.881 101.198 77.6651C101.087 77.4491 101.172 77.1843 101.388 77.0737C102.617 76.4443 103.659 75.6555 104.126 74.5779C104.223 74.3553 104.481 74.2531 104.704 74.3497Z" fill="#FCFEFD"/>
<path d="M43.7071 195.318V202.934H77.0984L104.924 199.126L122.792 196.783C124.666 194.674 124.354 191.022 123.963 189.46L104.046 193.854L77.0984 195.318H43.7071Z" fill="#31262D" stroke="black" stroke-width="2"/>
<path d="M77.3912 204.398V193.561H104.339C104.418 193.818 104.486 194.067 104.545 194.309C105.299 197.391 104.622 201.424 102.084 203.327C99.7109 205.107 96.6906 205.401 93.7258 205.479C85.1683 205.706 79.4025 204.901 77.3912 204.398Z" fill="#FEFF97" stroke="black" stroke-width="2"/>
<path d="M43.7071 203.519V205.863" stroke="black" stroke-width="2"/>
</svg>
